<svg width="120" height="90" viewBox="0 0 120 90" fill="none" xmlns="http://www.w3.org/2000/svg">
<path d="M64.6433 31.906C67.8855 23.5945 64.2867 18.4556 60.3569 18.6872C56.7596 18.8993 52.6613 23.195 51.599 30.9827C50.5315 31.1143 49.4725 31.3074 48.4272 31.5609C42.5909 32.9931 30.6464 39.686 31.9388 52.8006C32.5293 58.7893 38.8502 60.6992 42.6145 59.1622C45.2036 58.1053 46.919 55.8432 47.049 53.8959C47.049 53.8959 42.9984 54.8346 41.5837 50.2498C40.2989 46.0902 42.502 37.0459 51.3395 34.6174C51.3318 35.3277 51.3457 36.0594 51.3858 36.8138C51.5081 39.0985 51.7224 40.8846 51.9562 42.6311C50.2095 43.6556 48.4053 44.5789 46.5525 45.3965L46.5973 50.0388C46.5973 50.0388 49.1765 48.7236 52.4428 46.345C52.7995 49.3671 53.078 53.0804 52.9907 59.3049C52.8756 67.5091 52.1957 72.4 50.3184 75.6799C47.3496 74.5065 43.7061 73.0609 41.5009 72.8889C38.2572 72.6388 35.5042 74.1727 35.3717 77.0366C35.2941 78.7051 35.7242 80.6144 38.5979 82.1119C41.5842 83.6679 46.5238 83.7772 51.6124 79.3152C54.3684 80.7459 57.7792 82.2135 61.2737 82.6881C66.5848 83.407 80.3866 80.3407 84.3025 64.5604C88.668 46.9771 75.6418 35.095 64.6433 31.906ZM60.3183 24.069C62.6021 24.3545 63.2095 27.6637 62.1987 31.3283C59.7762 30.878 57.3132 30.6818 54.8499 30.7429C55.9199 26.2402 58.2607 23.8102 60.3209 24.0669L60.3183 24.069ZM54.4306 39.3974C54.239 37.6327 54.208 35.8542 54.3381 34.0839C56.6707 33.8744 58.8779 34.0351 60.9263 34.5173C60.7611 34.8278 60.5847 35.1349 60.397 35.4386C59.1369 37.4681 56.9456 39.3414 54.6732 40.9082C54.5656 40.4092 54.4846 39.9049 54.4306 39.3974V39.3974ZM46.1337 79.8585C42.9989 81.7683 39.9669 79.688 39.9541 78.0026C39.9382 75.7061 42.501 74.6646 46.0571 76.2412C46.6343 76.4979 47.5757 77.0598 48.7808 77.7546C48.0279 78.5505 47.1523 79.2371 46.1322 79.86L46.1337 79.8585ZM71.9782 69.8493C68.6923 75.4432 61.546 79.3557 53.8448 76.9945C55.5879 74.8629 57.6291 71.5634 60.1929 65.8114C63.911 57.4706 65.2805 50.6622 65.2805 50.6622C65.2805 50.6622 58.5659 49.7199 55.6588 43.7963C58.3666 41.4659 61.1288 38.5496 63.08 35.1613C69.7607 37.6262 74.3657 43.8174 75.3797 52.0051C76.0518 57.4321 75.725 63.4666 71.9771 69.8472" fill="white"/>
<path d="M50.4963 0.5L52.2657 5.97635H57.9971L53.3563 9.47469L55.1309 15.0039L50.4963 11.6497L45.8561 15.0444L47.6327 9.46802L42.9971 5.97635H48.7284L50.4963 0.5Z" fill="#BFA069"/>
<path d="M66.5013 0.5L68.2699 5.97727H74L69.3638 9.47619L71.1411 15.0063L66.5013 11.6516L61.865 15.0469L63.6393 9.46952L59 5.97727H64.7337L66.5013 0.5Z" fill="#BFA069"/>
</svg>
