<svg width="60" height="21" viewBox="0 0 60 21" fill="none" xmlns="http://www.w3.org/2000/svg">
<path fill-rule="evenodd" clip-rule="evenodd" d="M3.99663 0L2.99685 2.73859H16.8516L17.8514 0H3.99663ZM2.49665 4.10727L1.49686 6.84524H15.3516L16.3514 4.10727H2.49665ZM0.999781 8.21454L0 10.9525H13.8547L14.8539 8.21454H0.999781Z" fill="#009FDF"/>
<path fill-rule="evenodd" clip-rule="evenodd" d="M29.7835 11.9408V11.9994C30.4251 12.2349 31.038 12.6467 31.3591 12.9112C32.3513 13.7348 33.2553 14.8229 33.2553 16.2346C33.2553 18.5587 31.5634 20.2349 29.5498 20.7645C28.937 20.9408 28.2953 21 27.0983 21H21V4H26.3986C27.5075 4 28.266 4.05855 28.9369 4.23486C30.8925 4.76442 32.1763 6.1176 32.1763 8.26416C32.1763 9.41143 31.7677 10.3824 31.0968 11.0291C30.805 11.3231 30.3964 11.6764 29.7835 11.9408ZM24.3849 13.7348V18.2055H26.7197C27.4194 18.2055 28.0617 18.1469 28.529 17.7055C28.9957 17.2641 29.2 16.7056 29.2 15.9701C29.2 15.4116 29.0538 14.8821 28.762 14.4998C28.266 13.8821 27.6531 13.7348 26.6029 13.7348H24.3849ZM24.3556 10.7936H26.2524C26.8359 10.7936 27.1276 10.7936 27.4194 10.7054C28.2079 10.4699 28.7039 9.76469 28.7039 8.79372C28.7039 7.64709 28.1785 7.14648 27.4194 6.91162C27.0983 6.82347 26.7778 6.79387 26.1355 6.79387H24.3556V10.7936ZM38.3327 21V6.85242H33.4596V4H47L46.0372 6.85242H41.7176V21H38.3327ZM48 21V4H58.9727L58.0099 6.85242H51.3562V10.6173H54.0702C56.2587 10.6173 57.397 11.1468 58.1849 11.8231C58.7977 12.3526 59.848 13.5289 59.848 15.853C59.848 18.1469 58.7684 19.4113 57.8637 20.0586C56.8135 20.7935 55.7046 21 53.4573 21H48ZM51.3562 18.1469H53.8953C54.858 18.1469 55.4415 17.9114 55.8501 17.3819C56.0544 17.1174 56.3462 16.6464 56.3462 15.7642C56.3462 14.8821 56.0544 14.2643 55.4709 13.8229C55.121 13.5585 54.6537 13.4118 53.8659 13.4118H51.3562V18.1469Z" fill="#0A2973"/>
</svg>
