<svg width="53" height="53" viewBox="0 0 53 53" fill="none" xmlns="http://www.w3.org/2000/svg">
<path d="M26.5001 0L0 13.5151V19.2126L26.5001 5.83003L53.0003 19.2126V13.5151L26.5001 0ZM4.50502 25.0426H10.8651V38.0277H15.3701V20.9351H0V38.0277H4.50502V25.0426ZM17.4901 20.9351V38.0277H24.3801L30.0776 24.5126V38.0277H34.5827V20.9351H27.8251L21.9951 34.5827V20.9351H17.4901ZM36.7027 20.9351V38.0277H41.2077V32.5952L42.5327 31.2702L47.7002 38.0277H53.0003L45.5802 28.2226L53.0003 20.9351H47.1702L41.2077 27.2951V20.9351H36.7027Z" fill="white"/>
<path d="M45.4428 44.2578L44.3828 47.1728H46.3703L45.4428 44.2578Z" fill="white"/>
<path d="M0 53.001H53.0003V40.1484H0V53.001ZM44.2552 42.931H46.6402L49.2902 50.2185H47.4352L46.9052 48.761H43.8577L43.3277 50.2185H41.4727L44.2552 42.931ZM33.7877 42.931H40.4127V50.2185H38.6902V44.521H35.5102V50.2185H33.7877V42.931ZM25.7051 42.931H32.3302V50.2185H30.6076V44.521H27.4276V50.2185H25.7051V42.931ZM19.4776 42.931L21.2001 46.111L22.9226 42.931H24.7776L20.6701 50.2185H18.8151L20.2726 47.701L17.3576 42.931H19.4776ZM11.1301 42.931H14.8401C16.2976 42.931 17.3576 43.726 17.3576 45.316C17.3576 46.906 16.1651 47.701 14.8401 47.701H12.8526V50.2185H11.1301V42.931ZM4.50502 42.931H10.07V44.521H6.22753V50.2185H4.50502V42.931Z" fill="white"/>
<path d="M15.7705 45.3181C15.7705 44.6556 15.373 44.3906 14.7105 44.3906H12.8555V46.2456H14.7105C15.2405 46.2456 15.7705 45.9806 15.7705 45.3181Z" fill="white"/>
</svg>
