<svg width="109" height="60" viewBox="0 0 109 60" fill="none" xmlns="http://www.w3.org/2000/svg">
<path d="M21.2031 32.2612C21.2031 32.0098 21.3707 31.7584 21.6221 31.7584C22.0411 31.7584 22.3763 32.1774 23.0467 32.5964C24.3875 33.4344 25.6445 33.7696 27.2366 33.7696C28.9126 33.7696 29.8344 33.0992 29.8344 32.2612C29.8344 31.2556 28.745 30.7528 26.5663 30.0824C25.0579 29.5797 23.9685 29.2445 23.2981 28.8255C22.3763 28.2389 21.9573 27.4847 21.9573 26.5629C21.9573 24.8869 23.3819 23.7137 25.6445 23.7137C26.7339 23.7137 27.3204 23.8813 27.5718 23.8813C27.8232 23.8813 27.907 23.7975 28.0746 23.5461C28.1584 23.3785 28.326 23.2109 28.4936 23.2109C28.745 23.2109 29.0802 23.4623 29.4154 23.8813L30.6724 25.3897C31.0076 25.7249 31.1752 25.9763 31.1752 26.2277C31.1752 26.4791 31.0076 26.6467 30.7562 26.6467C30.421 26.6467 30.002 26.3115 29.3316 25.8925C28.4936 25.3897 27.7394 25.1383 26.9014 25.1383C25.8121 25.1383 25.2255 25.4735 25.2255 26.0601C25.2255 26.8981 26.5663 26.9819 28.745 27.6523C31.5104 28.4903 32.7674 29.6635 32.7674 31.7584C32.7674 33.8534 31.0914 35.3618 27.9908 35.3618C26.0635 35.3618 24.8903 34.9428 24.4713 34.9428C24.1361 34.9428 24.0523 35.697 23.5495 35.697C23.2143 35.697 23.0467 35.4456 22.7115 34.9428L21.5383 33.0154C21.2869 32.764 21.2031 32.5126 21.2031 32.2612Z" fill="white"/>
<path d="M34.2722 26.6482C35.3616 24.8884 37.3727 23.8828 39.3839 23.8828C41.0599 23.8828 42.5683 24.5532 43.7415 25.7264C44.9146 26.8996 45.585 28.4918 45.585 30.2515C45.585 33.5197 43.3225 35.6985 39.4677 35.6985C35.5292 35.6985 33.2666 33.6873 33.2666 30.4191C33.2666 28.9945 33.6018 27.7376 34.2722 26.6482ZM39.3839 34.0225C41.0599 34.0225 42.2331 32.5979 42.2331 30.0839C42.2331 27.151 40.9761 25.2236 39.3839 25.2236C38.5459 25.2236 37.9593 25.7264 37.3727 26.6482C36.87 27.4862 36.5348 28.7431 36.5348 30.0001C36.5348 32.5141 37.7079 34.0225 39.3839 34.0225Z" fill="white"/>
<path d="M45 34.6932C45 34.1904 45.419 34.1904 45.7542 34.0229C46.0056 33.8553 46.0894 33.6877 46.0894 33.3525V26.1458C46.0894 25.7268 46.0056 25.5592 45.7542 25.3916C45.419 25.224 45 25.224 45 24.7212C45 24.2184 45.3352 24.0508 45.9218 24.0508H49.0223C49.6927 24.0508 49.9441 24.2184 49.9441 24.7212C49.9441 25.224 49.5251 25.224 49.1899 25.3916C48.9385 25.5592 48.8547 25.7268 48.8547 26.1458V33.1011C48.8547 33.5201 49.1061 33.7715 49.5251 33.7715H51.2011C52.0391 33.7715 52.7095 33.6039 53.4637 33.1011C54.1341 32.6821 54.4693 32.2631 54.8883 32.2631C55.1397 32.2631 55.3073 32.4307 55.3073 32.7659C55.3073 33.0173 55.2235 33.1849 55.0559 33.3525L53.7989 35.4474C53.5475 35.7826 53.3799 36.034 53.1285 36.034C52.7933 36.034 52.6257 35.3636 51.8715 35.3636H46.0056C45.3352 35.3636 45 35.196 45 34.6932Z" fill="white"/>
<path d="M57.8232 34.4407C56.0634 33.4351 55.1416 31.843 55.1416 29.8318C55.1416 28.2396 55.7282 26.7312 56.9014 25.6418C58.0746 24.5525 59.7505 23.8821 61.5941 23.8821C62.4321 23.8821 63.0187 24.0497 63.6053 24.0497C64.1081 24.0497 64.1081 23.5469 64.5271 23.5469C64.8623 23.5469 64.9461 23.9659 65.1975 24.6363L65.6165 25.7256C65.8679 26.396 66.0355 26.8988 66.0355 27.0664C66.0355 27.3178 65.8679 27.4854 65.7003 27.4854C65.3651 27.4854 65.1137 27.0664 64.6109 26.6474C63.6891 25.8094 62.7673 25.3905 61.7617 25.3905C59.7505 25.3905 58.326 27.0664 58.326 29.4966C58.326 32.1782 59.7505 33.8541 62.0969 33.8541C63.0187 33.8541 63.4377 33.6027 63.4377 32.9324V31.5078C63.4377 31.0888 63.3539 30.9212 63.1025 30.8374C62.7673 30.6698 62.4321 30.6698 62.4321 30.167C62.4321 29.6642 62.6835 29.4966 63.2701 29.4966H66.2031C66.7896 29.4966 67.1248 29.6642 67.1248 30.167C67.1248 30.6698 66.7896 30.6698 66.4545 30.8374C66.2031 31.005 66.1193 31.1726 66.1193 31.5078V33.3513C66.1193 33.7703 66.2031 33.9379 66.4545 34.1055C66.7896 34.2731 67.2086 34.3569 67.2086 34.7759C67.2086 35.2787 66.8734 35.4463 66.2869 35.4463H63.3539C61.1751 35.3625 59.3315 35.2787 57.8232 34.4407Z" fill="white"/>
<path d="M67.793 34.777C67.793 34.1905 68.212 34.1904 68.5472 34.0229C68.9662 33.8553 69.2176 33.3525 69.4689 32.6821L73.0723 24.5536C73.3237 24.0508 73.2399 24.0508 73.7427 24.0508H75.0835C75.5025 24.0508 75.5025 24.0508 75.7539 24.6374L78.603 32.6821C78.8544 33.5201 79.022 33.9391 79.6086 34.1904C79.9438 34.358 80.279 34.4418 80.279 34.8608C80.279 35.2798 80.0276 35.3636 79.6086 35.3636H76.1729C75.5863 35.3636 75.3349 35.2798 75.3349 34.777C75.3349 34.5256 75.4187 34.358 75.6701 34.2742C75.9215 34.1904 76.0891 34.1904 76.0891 33.8553C76.0891 33.6877 75.9215 33.1011 75.6701 32.7659C75.3349 32.3469 75.0835 32.2631 74.4969 32.2631H72.6533C72.0667 32.2631 71.6477 32.3469 71.4801 32.5983C71.2287 32.8497 70.8935 33.5201 70.8935 33.9391C70.8935 34.1067 70.9773 34.1904 71.2287 34.2742C71.5639 34.4418 71.7315 34.6094 71.7315 34.8608C71.7315 35.196 71.4801 35.4474 71.0611 35.4474H68.2958C68.0444 35.3636 67.793 35.196 67.793 34.777ZM72.3181 30.4195C72.3181 30.7547 72.6533 30.8385 73.3237 30.8385C74.4131 30.8385 74.9997 30.6709 74.9997 30.4195C74.9997 30.2519 74.9997 30.1681 74.9159 30.0843L73.9941 27.3189C73.9103 27.1513 73.8265 27.0675 73.8265 27.0675C73.7427 27.0675 73.6589 27.1513 73.5751 27.3189L72.4857 30.1681C72.4019 30.2519 72.3181 30.3357 72.3181 30.4195Z" fill="white"/>
<path d="M84.8884 34.0207C85.2236 34.1883 85.6426 34.1883 85.6426 34.6911C85.6426 35.1939 85.3074 35.3615 84.7208 35.3615H81.704C81.1174 35.3615 80.7822 35.1939 80.7822 34.6911C80.7822 34.1883 81.2012 34.1883 81.5364 34.0207C81.7878 33.8531 81.8716 33.6855 81.8716 33.2665V26.0598C81.8716 25.6408 81.7878 25.4732 81.5364 25.3056C81.2012 25.138 80.7822 25.138 80.7822 24.6352C80.7822 24.1324 81.1174 23.9648 81.704 23.9648H85.475C87.2347 23.9648 88.6593 24.1324 89.9163 24.9704C91.2571 25.8084 92.0113 27.1492 92.0113 28.49C92.0113 29.9984 91.0895 31.004 89.3297 31.5905L90.7543 33.3503C91.0895 33.7693 91.3409 34.0207 91.8437 34.1883C92.1789 34.3559 92.4303 34.4397 92.4303 34.7749C92.4303 35.1101 92.1789 35.3615 91.5923 35.3615H87.9889C87.5699 35.3615 87.3185 35.1101 87.3185 34.7749C87.3185 34.0207 88.0727 34.1045 88.0727 33.9369C88.0727 33.7693 87.5699 33.1827 86.5644 32.1771C85.6426 32.2609 85.1398 32.0933 84.8884 32.0933C84.5532 32.0933 84.4694 32.2609 84.4694 32.5961V33.2665C84.5532 33.6855 84.637 33.9369 84.8884 34.0207ZM85.894 30.9202C87.6537 30.9202 88.6593 29.9984 88.6593 28.2386C88.6593 26.4788 87.6537 25.4732 85.894 25.4732C84.8884 25.4732 84.5532 25.7246 84.5532 26.395V29.4956C84.5532 30.585 84.8046 30.9202 85.894 30.9202Z" fill="white"/>
<path d="M40.0547 37.9609C43.0714 44.0783 49.3564 48.2682 56.5631 48.2682C63.7698 48.2682 70.0547 44.0783 73.0715 37.9609H40.0547Z" fill="white"/>
<path d="M72.9855 21.2856C69.9688 15.0845 63.7676 10.8945 56.4771 10.8945C49.2704 10.8945 42.9855 15.1683 39.9688 21.2856H72.9855Z" fill="white"/>
<path d="M80.3676 21.2849C77.0157 11.2291 67.5464 4.02235 56.4849 4.02235C45.4235 4.02235 36.038 11.2291 32.686 21.2849H28.4961C32.0156 8.96648 43.2447 0 56.5687 0C69.8927 0 81.1218 8.96648 84.6414 21.2849H80.3676Z" fill="white"/>
<path d="M80.3676 37.9609C76.9319 47.933 67.5464 55.1397 56.5687 55.1397C45.5911 55.1397 36.1218 47.933 32.686 37.9609H28.4961C32.0994 50.1956 43.2447 59.1621 56.4849 59.1621C69.7252 59.1621 80.9542 50.1956 84.4738 37.9609H80.3676Z" fill="white"/>
<path d="M9.38548 48.8558C9.38548 50.448 6.20112 52.0401 4.77654 51.9563C4.77654 51.7887 4.77654 51.6211 4.86034 51.3697C5.86592 51.1183 8.79888 50.1966 8.79888 48.772C8.79888 48.353 8.37989 48.1854 8.04469 48.1854C6.62011 48.1854 3.68715 49.9452 3.68715 51.5373C3.68715 53.9675 7.7095 53.3809 7.7095 55.9787C7.7095 58.4089 4.86034 58.9116 3.01676 58.9116C1.84358 58.9954 0 58.744 0 57.4871C0 56.3139 1.42458 55.7273 3.10056 55.7273C3.93855 55.7273 4.77654 55.8949 5.53073 56.1463C5.53073 56.2301 5.44693 56.7329 5.36313 56.7329C5.11173 56.7329 3.85475 56.3977 2.93296 56.3977C2.26257 56.3977 0.586592 56.6491 0.586592 57.4871C0.586592 58.4089 2.26257 58.4089 2.93296 58.4089C4.35754 58.4089 6.95531 58.1575 6.95531 56.2301C6.95531 54.1351 2.93296 54.3865 2.93296 51.9563C2.93296 49.6938 5.94972 47.7664 7.9609 47.7664C8.71509 47.6826 9.38548 48.0178 9.38548 48.8558Z" fill="white"/>
<path d="M11.5641 53.2956L9.55288 57.7369C9.46908 57.9883 9.38528 58.1559 9.38528 58.1559C9.38528 58.1559 9.38528 58.2397 9.46908 58.2397C9.72048 58.2397 12.0668 56.3961 12.0668 56.3961L12.2344 56.3123C12.3182 56.3123 12.3182 56.5637 12.3182 56.7313C12.3182 57.0665 9.63668 58.9101 9.05009 58.9101C8.71489 58.9101 8.5473 58.8263 8.5473 58.5749C8.5473 58.1559 9.30149 56.6475 9.46908 56.2285C9.30149 56.3961 8.5473 57.1503 8.4635 57.1503C8.3797 57.1503 8.2959 57.0665 8.2959 56.8151C8.2959 56.4799 10.0557 55.1392 10.1395 54.804L10.8099 53.2956H11.5641ZM11.1451 51.7034C11.1451 51.3682 11.3965 50.9492 11.7317 50.9492C11.9831 50.9492 12.0668 51.2006 12.0668 51.3682C12.0668 51.7034 11.8993 52.1224 11.4803 52.1224C11.2289 52.1224 11.1451 51.9548 11.1451 51.7034Z" fill="white"/>
<path d="M13.1582 57.3189C13.9124 56.5647 17.2643 53.1289 18.1023 53.1289C18.3537 53.1289 18.5213 53.2965 18.5213 53.4641C18.5213 53.6317 16.8453 57.235 16.5101 57.9054C16.5101 57.9892 16.5101 58.073 16.5939 58.073C17.0129 58.073 19.0241 56.3133 19.2755 56.1457C19.2755 56.1457 19.3593 56.1457 19.3593 56.3133C19.3593 56.5647 19.3593 56.7323 19.1079 56.9837C18.6889 57.4026 16.7615 58.8272 16.0911 58.8272C15.7559 58.8272 15.5883 58.7434 15.5883 58.3244C15.5883 57.9054 17.4319 54.4697 17.4319 54.2183C17.4319 54.1345 17.4319 54.0507 17.3481 54.0507C17.2643 54.0507 15.7559 55.3077 14.6665 56.3971L13.1582 57.9892C12.9068 58.2406 12.404 58.8272 12.2364 58.8272C12.0688 58.8272 11.9012 58.7434 11.9012 58.5758C11.985 58.1568 12.5716 56.8999 12.823 56.3133L12.9068 56.1457C12.9068 56.1457 12.0688 56.9837 11.985 56.9837C11.9012 56.9837 11.8174 56.8999 11.8174 56.6485C11.8174 56.3133 13.3258 55.3077 13.661 54.5535C13.9962 53.7993 14.08 53.2127 14.6665 53.2127C14.8341 53.2127 14.9179 53.2127 14.9179 53.3803C14.9179 53.5479 14.7503 53.7155 14.7503 53.7993L13.1582 57.3189Z" fill="white"/>
<path d="M22.7948 53.1289C23.2976 53.1289 23.9679 53.2965 23.9679 53.9669C23.9679 54.0507 23.549 55.5591 23.2138 55.5591C22.8786 55.5591 22.8786 55.3915 22.8786 55.3077C22.8786 54.9725 23.3814 54.3859 23.3814 54.0507C23.3814 53.7155 23.0462 53.6317 22.7948 53.6317C22.2082 53.6317 19.778 55.3077 19.778 57.0675C19.778 57.8216 19.9456 58.3244 20.7836 58.3244C22.1244 58.3244 24.1355 56.3133 24.2193 56.3133C24.3869 56.3133 24.3869 56.5647 24.3869 56.5647C24.3869 56.7323 24.3869 56.8161 24.2193 56.9837C23.3814 57.654 22.2082 58.911 20.4484 58.911C19.4428 58.911 19.1914 58.073 19.1914 56.7323C19.1914 55.1401 21.7054 53.1289 22.7948 53.1289Z" fill="white"/>
<path d="M27.6562 53.1289C28.3266 53.1289 28.7456 53.4641 28.7456 53.9669C28.7456 55.4753 27.1535 56.7323 25.2261 56.7323H24.6395C24.5557 57.4864 24.6395 58.3244 25.6451 58.3244C27.3211 58.3244 29.1646 56.2295 29.3322 56.2295C29.416 56.2295 29.4998 56.4809 29.4998 56.4809C29.4998 56.7323 29.416 56.8161 29.2484 56.9837C28.4942 57.5702 27.1535 58.911 25.4775 58.911C24.2205 58.911 24.0529 57.9892 24.0529 56.6485C23.9691 55.1401 26.3993 53.1289 27.6562 53.1289ZM27.5724 53.6317C26.7345 53.6317 24.8909 55.3077 24.8071 56.2295C24.9747 56.2295 25.1423 56.3133 25.2261 56.3133C26.6507 56.3133 28.0752 55.2239 28.0752 54.1345C28.0752 53.7993 27.8238 53.6317 27.5724 53.6317Z" fill="white"/>
<path d="M81.5352 58.9935C82.9597 56.8147 83.9653 54.3845 85.0547 52.1219C84.8871 52.3733 83.7977 53.0437 83.5463 53.0437C83.4625 53.0437 83.3787 52.8761 83.3787 52.7923C83.3787 52.6247 83.5463 52.4571 83.7977 52.2895C83.9653 52.2057 84.3843 52.0381 85.3061 51.2002C85.6413 50.865 85.8927 49.8594 86.5631 49.8594C86.7307 49.8594 86.8145 50.027 86.8145 50.1108C86.8145 50.2784 86.6469 50.6974 86.2279 51.1164C85.8927 51.4516 85.8089 51.7867 85.5575 52.2057C84.3005 55.2225 83.3787 57.2337 82.2893 58.9097L81.5352 58.9935Z" fill="white"/>
<path d="M89.3272 54.1327C89.3272 54.7193 89.5786 55.0545 90.1651 55.0545C90.9193 55.0545 91.7573 54.2165 92.1763 53.63C92.2601 53.7138 92.4277 53.8814 92.4277 53.9652C92.4277 54.3003 91.2545 55.5573 89.9976 55.5573C89.1596 55.5573 88.6568 54.8869 88.6568 54.0489C88.6568 52.0378 90.5003 49.6914 92.5953 49.6914C93.7685 49.6914 94.3551 50.3618 94.3551 51.535C94.3551 53.9652 91.1707 57.8199 88.4054 59.7473C88.2378 59.8311 88.0702 59.9987 87.9026 59.9987C87.735 59.9987 87.5674 59.9149 87.5674 59.7473C87.5674 59.6635 87.735 59.4959 87.9864 59.3283C89.9976 57.9037 93.6847 53.9651 93.6847 51.4512C93.6847 50.697 93.2657 50.278 92.5953 50.278C90.9193 50.3618 89.3272 52.6244 89.3272 54.1327Z" fill="white"/>
<path d="M100.054 52.5416C100.305 52.0388 100.64 51.4522 100.892 50.8656C100.976 50.7818 101.059 50.698 101.143 50.698C101.311 50.698 101.395 50.7818 101.395 50.8656C101.395 51.0332 99.2158 55.2232 99.2158 55.2232C99.2158 55.3908 99.97 55.3908 100.054 55.3908C100.221 55.3908 100.473 55.3908 100.64 55.3908C100.724 55.3908 100.892 55.3908 100.892 55.4746C100.892 55.6422 100.724 55.9773 100.389 55.9773C99.97 55.9773 99.4672 55.8935 98.9644 55.8935L97.875 58.4075C97.7912 58.5751 97.7074 58.9103 97.456 58.9103C97.2884 58.9103 97.2046 58.8265 97.2046 58.6589C97.2046 58.1561 98.2102 56.3963 98.3778 55.8098C97.7912 55.726 96.618 55.5584 95.9476 55.5584C95.6125 55.5584 95.2773 56.4801 94.6907 56.4801C94.5231 56.4801 94.3555 56.3963 94.3555 56.1449C94.3555 55.726 94.9421 55.307 95.2773 55.1394C95.6962 54.888 95.6125 54.888 95.8639 54.5528C97.1208 52.8768 98.1264 50.0276 98.2102 49.7762C98.3778 49.441 98.3778 49.2734 98.713 49.2734C98.8806 49.2734 99.0482 49.3572 99.0482 49.5248C99.0482 49.7762 97.3722 53.3796 96.2828 55.0556C96.9532 55.1394 97.7074 55.307 98.4616 55.307C98.713 55.307 98.713 55.307 98.8806 55.0556L100.054 52.5416Z" fill="white"/>
<path d="M103.07 51.3674C103.07 50.7808 103.992 50.278 103.992 49.7752C103.992 49.6914 104.243 49.6914 104.327 49.6914C104.411 49.6914 104.579 49.6914 104.662 49.6914C104.746 49.6914 104.662 49.7752 104.746 49.7752C104.83 49.7752 105.165 49.6914 105.584 49.6914C105.836 49.6914 106.757 49.859 107.428 49.859C107.847 49.859 108.182 49.7752 108.601 49.7752C108.852 49.7752 108.936 49.7752 108.936 49.859C108.936 50.1104 108.936 50.1942 108.433 50.8646C107.26 52.5406 106.757 53.4624 106.087 55.0545C105.417 56.4791 104.914 57.7361 104.243 58.7417C104.076 58.9931 103.992 59.0769 103.657 59.0769C103.573 59.0769 103.322 58.9931 103.322 58.9093C103.322 58.8255 103.908 57.9037 103.992 57.7361C105.5 54.8869 105.752 53.7138 107.931 50.5294C107.093 50.6132 106.255 50.3618 105.417 50.3618C105.081 50.3618 104.83 50.3618 104.579 50.4456C104.411 50.5294 104.411 50.5294 104.327 50.697C104.243 50.9484 103.741 51.7864 103.406 51.7864C103.154 51.7864 103.07 51.535 103.07 51.3674Z" fill="white"/>
<path d="M96.7038 25.8962C96.7038 26.9856 95.8658 27.8236 94.8602 27.8236C93.8546 27.8236 93.0166 26.9856 93.0166 25.8962C93.0166 24.8906 93.8546 24.0527 94.8602 24.0527C95.9496 23.9689 96.7038 24.8068 96.7038 25.8962ZM93.268 25.8962C93.268 26.818 93.9384 27.4884 94.8602 27.4884C95.6982 27.4884 96.4524 26.7342 96.4524 25.8962C96.4524 24.9744 95.782 24.304 94.8602 24.304C94.0222 24.304 93.268 24.9744 93.268 25.8962ZM95.782 26.9018H95.5306L94.944 25.8962H94.4412V26.9018H94.1898V24.8068H95.1116C95.2792 24.8068 95.4468 24.8068 95.6144 24.8906C95.782 24.9744 95.8658 25.142 95.8658 25.3096C95.8658 25.7286 95.6144 25.8962 95.1954 25.8962L95.782 26.9018ZM94.8602 25.7286C95.1116 25.7286 95.6144 25.8124 95.6144 25.3096C95.6144 24.9744 95.363 24.9744 95.1116 24.9744H94.525V25.7286H94.8602Z" fill="white"/>
</svg>
