<svg width="99" height="35" viewBox="0 0 99 35" fill="none" xmlns="http://www.w3.org/2000/svg">
<path d="M28.6312 4.66238H5.09683L6.79224 0H30.3266L28.6312 4.66238ZM27.7835 6.99356H4.23852L2.54311 11.6559H26.0775L27.7835 6.99356ZM25.2404 13.9659H1.69541L0 18.6283H23.5132L25.2404 13.9659Z" fill="white"/>
<path d="M84.7056 30.2967H88.9442C89.5466 30.3687 90.1575 30.2913 90.7229 30.0714C91.2884 29.8514 91.7911 29.4958 92.1866 29.0358C92.7681 28.2749 93.0609 27.3325 93.0131 26.3761C93.0529 25.7675 92.9411 25.1585 92.6878 24.6038C92.4344 24.049 92.0474 23.5657 91.5615 23.1972C90.7747 22.6824 89.839 22.4438 88.9018 22.519H84.7056V30.2967ZM79.1426 34.9909V6.99544H97.3576L95.7576 11.6896H84.7056V17.8884H89.2091C92.8436 17.8884 94.7297 18.7573 96.0331 19.87C96.9649 20.6951 97.6978 21.7206 98.1768 22.8694C98.6558 24.0182 98.8684 25.2605 98.7987 26.5032C98.8703 27.8415 98.6063 29.1764 98.0308 30.3866C97.4553 31.5969 96.5865 32.6441 95.5033 33.4332C93.7549 34.6412 91.9217 34.9803 88.1918 34.9803L79.1426 34.9909ZM63.015 34.9909V11.679H54.9194V6.99544H77.3942L75.7941 11.6896H68.631V35.0015L63.015 34.9909ZM40.5826 18.2063H43.7615C44.4116 18.2508 45.0648 18.2008 45.7006 18.058C46.3619 17.8468 46.9317 17.4171 47.3168 16.8396C47.7018 16.262 47.8792 15.5707 47.8199 14.8791C47.9081 14.1919 47.741 13.4962 47.3504 12.9239C46.9598 12.3516 46.3728 11.9426 45.7006 11.7744C45.0064 11.6132 44.2932 11.549 43.5814 11.5836H40.5826V18.2063ZM40.5826 23.0488V30.3921H44.4608C45.5297 30.5143 46.6043 30.2181 47.4596 29.5656C47.8538 29.2004 48.1626 28.7527 48.3641 28.2546C48.5655 27.7564 48.6547 27.2199 48.6252 26.6834C48.6421 25.8261 48.3819 24.9863 47.8835 24.2886C47.0569 23.229 46.0397 23.0277 44.3019 23.0277L40.5826 23.0488ZM49.5471 20.0925V20.1878C50.4918 20.5515 51.3747 21.0591 52.1644 21.6925C52.9626 22.355 53.5935 23.1962 54.0059 24.148C54.4182 25.0998 54.6005 26.1354 54.5379 27.1708C54.5379 30.9961 52.5034 33.7617 49.1656 34.5882C47.8351 34.9135 46.4647 35.0455 45.0966 34.9803H35.0195V6.99544H43.984C45.4078 6.94339 46.8324 7.07516 48.2225 7.3875C51.465 8.2564 53.5949 10.4922 53.5949 14.0208C53.6214 14.8621 53.4762 15.6999 53.1684 16.4833C52.8605 17.2666 52.3963 17.9791 51.8041 18.5772C51.1752 19.2158 50.4261 19.7236 49.6001 20.0713L49.5471 20.0925Z" fill="white"/>
</svg>
